<svg version="1.1" id="Layer_1" xmlns="http://www.w3.org/2000/svg" xmlns:xlink="http://www.w3.org/1999/xlink" x="0px" y="0px"
	 width="100%" viewBox="0 0 455 202" enable-background="new 0 0 455 202" xml:space="preserve">
<path fill="#010101" opacity="1.000000" stroke="none" 
	d="
M285.000000,203.000000 
	C190.000031,203.000000 95.500069,203.000000 1.000076,203.000000 
	C1.000051,135.666718 1.000051,68.333450 1.000025,1.000130 
	C152.666550,1.000087 304.333099,1.000087 455.999756,1.000043 
	C455.999817,68.333199 455.999817,135.666397 455.999908,202.999786 
	C399.166656,203.000000 342.333344,203.000000 285.000000,203.000000 
M89.584785,22.831264 
	C86.250206,26.616482 81.514191,29.880386 79.871979,34.295139 
	C76.423271,43.566277 74.362946,53.388359 72.166321,63.082531 
	C69.010048,77.011902 66.426392,91.072655 63.154919,104.972969 
	C62.470367,107.881607 59.858494,110.336639 58.134766,113.000702 
	C56.432995,110.205887 53.503559,107.526817 53.227386,104.597603 
	C51.341576,84.595848 50.040100,64.539436 48.478470,44.506245 
	C48.221512,41.209900 47.906170,37.867100 47.104359,34.674732 
	C45.371090,27.773767 41.049343,24.235121 34.534512,23.877855 
	C25.889641,23.403782 20.199665,26.063757 18.372717,33.265507 
	C16.639864,40.096317 15.758397,47.389305 16.006447,54.426033 
	C16.550465,69.858856 17.683287,85.295517 19.267002,100.659355 
	C20.548222,113.088623 23.479645,125.172241 29.730593,136.290909 
	C38.159184,151.282944 55.033794,151.775330 66.063820,145.312576 
	C74.824326,140.179581 79.328949,131.708420 81.946068,122.520004 
	C85.444443,110.237541 87.914330,97.660461 90.767288,85.196487 
	C92.456764,77.815552 94.033325,70.408768 95.660652,63.013611 
	C96.305275,63.014088 96.949905,63.014568 97.594528,63.015045 
	C99.115891,71.416351 100.358856,79.879913 102.220383,88.205162 
	C105.440353,102.605789 107.721634,117.409576 112.803818,131.154190 
	C120.009148,150.640778 142.381714,153.699646 156.399414,138.236801 
	C163.271423,130.656311 167.741043,121.604042 169.817673,111.829521 
	C173.194031,95.937187 175.893982,79.867645 178.035858,63.760727 
	C179.100830,55.752163 178.863266,47.445621 178.173218,39.362816 
	C177.453888,30.937336 172.101013,26.069401 164.903061,25.614443 
	C155.816788,25.040134 149.801697,28.680389 148.070618,37.559547 
	C146.106018,47.636562 145.768738,58.019901 144.127533,68.173668 
	C142.064362,80.938156 139.522110,93.631432 136.851715,106.284752 
	C136.457642,108.151962 134.221161,109.630333 132.837112,111.288612 
	C131.707138,109.581993 130.550949,107.891769 129.466858,106.156494 
	C129.216400,105.755592 129.187210,105.205132 129.099091,104.715775 
	C126.686096,91.315437 124.638123,77.836235 121.757721,64.537292 
	C119.411194,53.703247 117.014839,42.705688 112.911926,32.473808 
	C108.527939,21.541006 101.636398,19.297487 89.584785,22.831264 
M210.804184,133.046799 
	C206.965286,130.773254 204.173447,127.775902 203.542297,122.726471 
	C207.480515,122.455795 211.128769,122.423615 214.709488,121.915512 
	C223.391235,120.683578 232.179230,119.787766 240.662048,117.693726 
	C247.758621,115.941895 252.378021,110.905792 253.103668,103.134285 
	C253.868103,94.947563 251.236862,88.143120 243.921753,84.113037 
	C240.092529,82.003418 235.653214,80.610672 231.322357,79.866661 
	C206.597443,75.619041 178.019211,90.464165 183.981750,126.289589 
	C185.834045,137.418869 192.450592,144.972168 203.004196,148.764694 
	C213.742722,152.623688 224.921509,153.273041 235.851334,150.266937 
	C241.568283,148.694565 247.092789,145.590179 251.933273,142.106506 
	C253.670898,140.855942 254.169525,136.109924 253.310699,133.623352 
	C252.695816,131.843094 248.880188,130.220078 246.492432,130.219818 
	C242.793365,130.219406 239.004227,131.385513 235.413376,132.550476 
	C227.488953,135.121353 219.604095,136.316879 210.804184,133.046799 
M280.399597,149.205093 
	C290.601929,152.543823 301.104370,153.116776 311.344147,150.412750 
	C317.227722,148.859070 322.895996,145.651550 327.916809,142.127884 
	C329.655670,140.907516 330.172943,136.141052 329.324768,133.648956 
	C328.718506,131.867661 324.924835,130.267395 322.518677,130.216202 
	C318.988678,130.141098 315.446564,131.629517 311.875580,132.258606 
	C306.200256,133.258423 300.500519,134.812485 294.804474,134.841751 
	C285.966095,134.887131 280.356293,129.847992 280.043671,122.962875 
	C289.593018,121.944107 299.160156,121.067238 308.687531,119.873245 
	C322.868561,118.096062 329.920258,110.771858 329.155884,98.963860 
	C328.613129,90.579727 323.247498,84.010017 313.958374,81.205154 
	C301.327087,77.391129 288.890961,78.261017 277.314087,84.742973 
	C263.198883,92.646164 258.401062,105.608116 259.289764,121.028313 
	C260.070618,134.576263 266.422638,144.348557 280.399597,149.205093 
M377.172546,117.052078 
	C374.242493,115.613068 376.000549,114.354652 377.351471,113.138878 
	C382.423950,108.573776 387.671295,104.188957 392.542542,99.419411 
	C395.642883,96.383827 397.629150,92.597382 394.878998,88.217247 
	C392.776703,84.868965 387.892975,83.922791 383.150208,86.064560 
	C380.920746,87.071335 378.809540,88.544449 376.972900,90.175720 
	C372.617188,94.044388 368.472656,98.149979 364.205872,102.120186 
	C363.351166,102.915474 362.332764,103.534805 360.673920,104.767097 
	C361.023071,100.254333 361.347534,96.780853 361.550171,93.300285 
	C362.062317,84.502243 362.732697,75.704956 362.895691,66.899139 
	C362.962189,63.305809 361.481598,59.890999 357.244568,59.110695 
	C353.093933,58.346310 349.480713,59.537090 347.489258,63.418163 
	C345.987091,66.345627 344.489288,69.505074 344.044067,72.707848 
	C341.157196,93.475235 338.497589,114.275208 335.941437,135.086365 
	C335.604004,137.833588 335.478333,141.132401 336.693878,143.406357 
	C338.086456,146.011353 340.905548,149.179291 343.434204,149.499146 
	C346.274994,149.858490 349.973114,147.882233 352.370392,145.835373 
	C354.141510,144.323196 354.623444,141.124527 355.329834,138.580109 
	C356.652618,133.815125 357.721680,128.979706 359.060608,123.501221 
	C361.708435,125.488625 363.797302,127.073387 365.903717,128.634521 
	C373.522552,134.281143 380.949615,140.217697 388.841675,145.453003 
	C393.810791,148.749359 399.933990,147.272507 402.667114,143.160416 
	C405.275543,139.235855 404.156403,135.708191 398.421082,131.585358 
	C391.665009,126.728745 384.698151,122.165390 377.172546,117.052078 
M413.355164,146.199020 
	C420.951202,151.630219 430.742218,149.432251 431.974670,140.834534 
	C434.137360,125.747437 434.715179,110.414497 435.497253,95.160965 
	C435.697815,91.249054 433.440247,87.643776 429.187439,86.464645 
	C424.737610,85.230888 420.316833,85.953117 417.250854,89.488640 
	C415.279541,91.761818 413.423157,94.862106 413.143494,97.749367 
	C411.909088,110.494675 411.068237,123.289185 410.548492,136.084717 
	C410.421051,139.222015 412.042145,142.430344 413.355164,146.199020 
M428.004120,58.856930 
	C423.668274,60.684189 418.613892,61.651794 415.162201,64.536850 
	C409.760010,69.052193 411.815308,77.255989 418.585846,79.181801 
	C424.897827,80.977173 431.466431,80.908409 437.458038,77.509430 
	C441.341370,75.306442 442.825012,71.762779 442.278961,67.350494 
	C441.744446,63.031498 439.152649,60.393845 435.157715,59.263996 
	C433.133423,58.691490 430.912750,58.813332 428.004120,58.856930 
z"/>
<path fill="#0085FD" opacity="1.000000" stroke="none" 
	d="
M89.932503,22.650709 
	C101.636398,19.297487 108.527939,21.541006 112.911926,32.473808 
	C117.014839,42.705688 119.411194,53.703247 121.757721,64.537292 
	C124.638123,77.836235 126.686096,91.315437 129.099091,104.715775 
	C129.187210,105.205132 129.216400,105.755592 129.466858,106.156494 
	C130.550949,107.891769 131.707138,109.581993 132.837112,111.288605 
	C134.221161,109.630333 136.457642,108.151962 136.851715,106.284752 
	C139.522110,93.631432 142.064362,80.938156 144.127533,68.173668 
	C145.768738,58.019901 146.106018,47.636562 148.070618,37.559547 
	C149.801697,28.680389 155.816788,25.040134 164.903061,25.614443 
	C172.101013,26.069401 177.453888,30.937336 178.173218,39.362816 
	C178.863266,47.445621 179.100830,55.752163 178.035858,63.760727 
	C175.893982,79.867645 173.194031,95.937187 169.817673,111.829521 
	C167.741043,121.604042 163.271423,130.656311 156.399414,138.236801 
	C142.381714,153.699646 120.009148,150.640778 112.803818,131.154190 
	C107.721634,117.409576 105.440353,102.605789 102.220383,88.205162 
	C100.358856,79.879913 99.115891,71.416351 97.594528,63.015045 
	C96.949905,63.014568 96.305275,63.014088 95.660652,63.013611 
	C94.033325,70.408768 92.456764,77.815552 90.767288,85.196487 
	C87.914330,97.660461 85.444443,110.237541 81.946068,122.520004 
	C79.328949,131.708420 74.824326,140.179581 66.063820,145.312576 
	C55.033794,151.775330 38.159184,151.282944 29.730593,136.290909 
	C23.479645,125.172241 20.548222,113.088623 19.267002,100.659355 
	C17.683287,85.295517 16.550465,69.858856 16.006447,54.426033 
	C15.758397,47.389305 16.639864,40.096317 18.372717,33.265507 
	C20.199665,26.063757 25.889641,23.403782 34.534512,23.877855 
	C41.049343,24.235121 45.371090,27.773767 47.104359,34.674732 
	C47.906170,37.867100 48.221512,41.209900 48.478470,44.506245 
	C50.040100,64.539436 51.341576,84.595848 53.227386,104.597603 
	C53.503559,107.526817 56.432995,110.205887 58.134766,113.000702 
	C59.858494,110.336639 62.470367,107.881607 63.154919,104.972969 
	C66.426392,91.072655 69.010048,77.011902 72.166321,63.082531 
	C74.362946,53.388359 76.423271,43.566277 79.871979,34.295139 
	C81.514191,29.880386 86.250206,26.616482 89.932503,22.650709 
z"/>
<path fill="#F9F9F9" opacity="1.000000" stroke="none" 
	d="
M211.169006,133.197784 
	C219.604095,136.316879 227.488953,135.121353 235.413376,132.550476 
	C239.004227,131.385513 242.793365,130.219406 246.492432,130.219818 
	C248.880188,130.220078 252.695816,131.843094 253.310699,133.623352 
	C254.169525,136.109924 253.670898,140.855942 251.933273,142.106506 
	C247.092789,145.590179 241.568283,148.694565 235.851334,150.266937 
	C224.921509,153.273041 213.742722,152.623688 203.004196,148.764694 
	C192.450592,144.972168 185.834045,137.418869 183.981750,126.289589 
	C178.019211,90.464165 206.597443,75.619041 231.322357,79.866661 
	C235.653214,80.610672 240.092529,82.003418 243.921753,84.113037 
	C251.236862,88.143120 253.868103,94.947563 253.103668,103.134285 
	C252.378021,110.905792 247.758621,115.941895 240.662048,117.693726 
	C232.179230,119.787766 223.391235,120.683578 214.709488,121.915512 
	C211.128769,122.423615 207.480515,122.455795 203.542297,122.726471 
	C204.173447,127.775902 206.965286,130.773254 211.169006,133.197784 
M233.002350,96.515541 
	C226.997849,92.164757 218.934479,92.108986 212.059143,96.370689 
	C206.400803,99.878029 203.815430,104.527565 204.907761,110.638428 
	C212.313370,110.130051 219.945724,110.180756 227.357773,108.928001 
	C234.127350,107.783836 235.776688,103.703346 233.002350,96.515541 
z"/>
<path fill="#F9F9F9" opacity="1.000000" stroke="none" 
	d="
M280.023926,149.087372 
	C266.422638,144.348557 260.070618,134.576263 259.289764,121.028313 
	C258.401062,105.608116 263.198883,92.646164 277.314087,84.742973 
	C288.890961,78.261017 301.327087,77.391129 313.958374,81.205154 
	C323.247498,84.010017 328.613129,90.579727 329.155884,98.963860 
	C329.920258,110.771858 322.868561,118.096062 308.687531,119.873245 
	C299.160156,121.067238 289.593018,121.944107 280.042969,122.956802 
	C280.356293,129.847992 285.966095,134.887131 294.804474,134.841751 
	C300.500519,134.812485 306.200256,133.258423 311.875580,132.258606 
	C315.446564,131.629517 318.988678,130.141098 322.518677,130.216202 
	C324.924835,130.267395 328.718506,131.867661 329.324768,133.648956 
	C330.172943,136.141052 329.655670,140.907516 327.916809,142.127884 
	C322.895996,145.651550 317.227722,148.859070 311.344147,150.412750 
	C301.104370,153.116776 290.601929,152.543823 280.023926,149.087372 
M309.002350,96.515579 
	C302.997894,92.164719 294.934631,92.108940 288.059143,96.370705 
	C282.400818,99.877998 279.815430,104.527542 280.907745,110.638420 
	C288.313354,110.130051 295.945709,110.180756 303.357758,108.928001 
	C310.127380,107.783829 311.776703,103.703362 309.002350,96.515579 
z"/>
<path fill="#FAFAFA" opacity="1.000000" stroke="none" 
	d="
M377.497620,117.263481 
	C384.698151,122.165390 391.665009,126.728745 398.421082,131.585358 
	C404.156403,135.708191 405.275543,139.235855 402.667114,143.160416 
	C399.933990,147.272507 393.810791,148.749359 388.841675,145.453003 
	C380.949615,140.217697 373.522552,134.281143 365.903717,128.634521 
	C363.797302,127.073387 361.708435,125.488625 359.060608,123.501221 
	C357.721680,128.979706 356.652618,133.815125 355.329834,138.580109 
	C354.623444,141.124527 354.141510,144.323196 352.370392,145.835373 
	C349.973114,147.882233 346.274994,149.858490 343.434204,149.499146 
	C340.905548,149.179291 338.086456,146.011353 336.693878,143.406357 
	C335.478333,141.132401 335.604004,137.833588 335.941437,135.086365 
	C338.497589,114.275208 341.157196,93.475235 344.044067,72.707848 
	C344.489288,69.505074 345.987091,66.345627 347.489258,63.418163 
	C349.480713,59.537090 353.093933,58.346310 357.244568,59.110695 
	C361.481598,59.890999 362.962189,63.305809 362.895691,66.899139 
	C362.732697,75.704956 362.062317,84.502243 361.550171,93.300285 
	C361.347534,96.780853 361.023071,100.254333 360.673920,104.767097 
	C362.332764,103.534805 363.351166,102.915474 364.205872,102.120186 
	C368.472656,98.149979 372.617188,94.044388 376.972900,90.175720 
	C378.809540,88.544449 380.920746,87.071335 383.150208,86.064560 
	C387.892975,83.922791 392.776703,84.868965 394.878998,88.217247 
	C397.629150,92.597382 395.642883,96.383827 392.542542,99.419411 
	C387.671295,104.188957 382.423950,108.573776 377.351471,113.138878 
	C376.000549,114.354652 374.242493,115.613068 377.497620,117.263481 
z"/>
<path fill="#F9F9F9" opacity="1.000000" stroke="none" 
	d="
M413.107239,145.902527 
	C412.042145,142.430344 410.421051,139.222015 410.548492,136.084717 
	C411.068237,123.289185 411.909088,110.494675 413.143494,97.749367 
	C413.423157,94.862106 415.279541,91.761818 417.250854,89.488640 
	C420.316833,85.953117 424.737610,85.230888 429.187439,86.464645 
	C433.440247,87.643776 435.697815,91.249054 435.497253,95.160965 
	C434.715179,110.414497 434.137360,125.747437 431.974670,140.834534 
	C430.742218,149.432251 420.951202,151.630219 413.107239,145.902527 
z"/>
<path fill="#F8F8F8" opacity="1.000000" stroke="none" 
	d="
M428.392517,58.739094 
	C430.912750,58.813332 433.133423,58.691490 435.157715,59.263996 
	C439.152649,60.393845 441.744446,63.031498 442.278961,67.350494 
	C442.825012,71.762779 441.341370,75.306442 437.458038,77.509430 
	C431.466431,80.908409 424.897827,80.977173 418.585846,79.181801 
	C411.815308,77.255989 409.760010,69.052193 415.162201,64.536850 
	C418.613892,61.651794 423.668274,60.684189 428.392517,58.739094 
z"/>
<path fill="#060606" opacity="1.000000" stroke="none" 
	d="
M233.227783,96.825417 
	C235.776688,103.703346 234.127350,107.783836 227.357773,108.928001 
	C219.945724,110.180756 212.313370,110.130051 204.907761,110.638428 
	C203.815430,104.527565 206.400803,99.878029 212.059143,96.370689 
	C218.934479,92.108986 226.997849,92.164757 233.227783,96.825417 
z"/>
<path fill="#060606" opacity="1.000000" stroke="none" 
	d="
M309.227783,96.825439 
	C311.776703,103.703362 310.127380,107.783829 303.357758,108.928001 
	C295.945709,110.180756 288.313354,110.130051 280.907745,110.638420 
	C279.815430,104.527542 282.400818,99.877998 288.059143,96.370705 
	C294.934631,92.108940 302.997894,92.164719 309.227783,96.825439 
z"/>
</svg>